<svg width="353" height="46" viewBox="0 0 353 46" fill="none" xmlns="http://www.w3.org/2000/svg">
<g filter="url(#filter0_dd_3843_11540)">
<path d="M0.00195312 16C0.00195312 11.5817 3.58368 8 8.00195 8H344.002C348.42 8 352.002 11.5817 352.002 16V46H0.00195312V16Z" fill="#FAF9F8"/>
<rect x="161.502" y="16.5" width="29" height="29" rx="14.5" fill="white"/>
<path d="M173.002 27.25C173.416 27.25 173.752 26.9142 173.752 26.5C173.752 26.0858 173.416 25.75 173.002 25.75C172.588 25.75 172.252 26.0858 172.252 26.5C172.252 26.9142 172.588 27.25 173.002 27.25ZM173.002 30.25C173.416 30.25 173.752 29.9142 173.752 29.5C173.752 29.0858 173.416 28.75 173.002 28.75C172.588 28.75 172.252 29.0858 172.252 29.5C172.252 29.9142 172.588 30.25 173.002 30.25ZM173.752 32.5C173.752 32.9142 173.416 33.25 173.002 33.25C172.588 33.25 172.252 32.9142 172.252 32.5C172.252 32.0858 172.588 31.75 173.002 31.75C173.416 31.75 173.752 32.0858 173.752 32.5ZM176.002 27.25C176.416 27.25 176.752 26.9142 176.752 26.5C176.752 26.0858 176.416 25.75 176.002 25.75C175.588 25.75 175.252 26.0858 175.252 26.5C175.252 26.9142 175.588 27.25 176.002 27.25ZM176.752 29.5C176.752 29.9142 176.416 30.25 176.002 30.25C175.588 30.25 175.252 29.9142 175.252 29.5C175.252 29.0858 175.588 28.75 176.002 28.75C176.416 28.75 176.752 29.0858 176.752 29.5ZM176.002 33.25C176.416 33.25 176.752 32.9142 176.752 32.5C176.752 32.0858 176.416 31.75 176.002 31.75C175.588 31.75 175.252 32.0858 175.252 32.5C175.252 32.9142 175.588 33.25 176.002 33.25ZM176.752 35.5C176.752 35.9142 176.416 36.25 176.002 36.25C175.588 36.25 175.252 35.9142 175.252 35.5C175.252 35.0858 175.588 34.75 176.002 34.75C176.416 34.75 176.752 35.0858 176.752 35.5ZM179.002 27.25C179.416 27.25 179.752 26.9142 179.752 26.5C179.752 26.0858 179.416 25.75 179.002 25.75C178.588 25.75 178.252 26.0858 178.252 26.5C178.252 26.9142 178.588 27.25 179.002 27.25ZM179.752 29.5C179.752 29.9142 179.416 30.25 179.002 30.25C178.588 30.25 178.252 29.9142 178.252 29.5C178.252 29.0858 178.588 28.75 179.002 28.75C179.416 28.75 179.752 29.0858 179.752 29.5ZM179.002 33.25C179.416 33.25 179.752 32.9142 179.752 32.5C179.752 32.0858 179.416 31.75 179.002 31.75C178.588 31.75 178.252 32.0858 178.252 32.5C178.252 32.9142 178.588 33.25 179.002 33.25Z" fill="#10738E"/>
<rect x="161.502" y="16.5" width="29" height="29" rx="14.5" stroke="#EDEBE9"/>
</g>
<defs>
<filter id="filter0_dd_3843_11540" x="-10.398" y="0.8" width="366.4" height="52.4" filterUnits="userSpaceOnUse" color-interpolation-filters="sRGB">
<feFlood flood-opacity="0" result="BackgroundImageFix"/>
<feColorMatrix in="SourceAlpha" type="matrix" values="0 0 0 0 0 0 0 0 0 0 0 0 0 0 0 0 0 0 127 0" result="hardAlpha"/>
<feOffset dx="-3.2"/>
<feGaussianBlur stdDeviation="3.6"/>
<feColorMatrix type="matrix" values="0 0 0 0 0 0 0 0 0 0 0 0 0 0 0 0 0 0 0.13 0"/>
<feBlend mode="normal" in2="BackgroundImageFix" result="effect1_dropShadow_3843_11540"/>
<feColorMatrix in="SourceAlpha" type="matrix" values="0 0 0 0 0 0 0 0 0 0 0 0 0 0 0 0 0 0 127 0" result="hardAlpha"/>
<feOffset dx="-0.6"/>
<feGaussianBlur stdDeviation="0.9"/>
<feColorMatrix type="matrix" values="0 0 0 0 0 0 0 0 0 0 0 0 0 0 0 0 0 0 0.1 0"/>
<feBlend mode="normal" in2="effect1_dropShadow_3843_11540" result="effect2_dropShadow_3843_11540"/>
<feBlend mode="normal" in="SourceGraphic" in2="effect2_dropShadow_3843_11540" result="shape"/>
</filter>
</defs>
</svg>
